<svg xmlns="http://www.w3.org/2000/svg" fill="none" viewBox="0 0 786 834"><ellipse cx="593.928" cy="362.682" fill="#fff" rx="16.704" ry="31.419"/><ellipse cx="462.274" cy="399.729" fill="#fff" rx="45.106" ry="14.786"/><ellipse cx="476.163" cy="428.879" fill="#fff" rx="27.413" ry="9.859"/><ellipse cx="561.885" cy="444.548" fill="#fff" rx="14.103" ry="11.672"/><ellipse cx="604.006" cy="427.835" fill="#fff" rx="10.786" ry="14.788"/><ellipse cx="157.109" cy="519.723" fill="#fff" rx="48.011" ry="53.821"/><path fill="#fff" d="m449.778 582.534.011.02c.006.011.01.027.017.04l-.028-.06Zm306.171 3.396c-6.089 36.902-21.776 66.849-48.137 94.4-16.044 17.272-35.525 32.289-57.813 43.209a244.272 244.272 0 0 1-37.755 15.946c-99.374 32.455-201.092-3.227-233.883-79.852a123.14 123.14 0 0 1-6.576-18.099c-13.973-50.493-2.109-111.076 34.972-149.206.004-.004-.005-.015-.003-.02 2.288-2.428 4.62-5.288 4.62-8.887 0-3.009-1.912-6.185-3.57-8.434-12.974-18.818-57.912-50.883-48.892-112.936 6.477-44.579 45.465-75.976 81.816-74.115 3.07.158 6.145.348 9.21.53 15.753.932 29.495 2.952 42.464 3.494 21.701.936 41.22-2.217 64.333-21.477 7.799-6.5 14.05-12.132 24.628-13.924 1.109-.189 3.877-1.18 9.405-.92 5.644.3 11.015 1.851 15.843 5.064 18.531 12.332 21.16 42.197 22.121 64.045.546 12.472 2.055 42.645 2.571 51.307 1.177 19.806 6.384 22.6 16.917 26.068 5.923 1.949 11.423 3.404 19.527 5.678 24.531 6.887 39.073 13.874 48.241 22.85 5.468 5.609 8.009 11.569 8.795 17.253 2.893 21.101-16.383 47.166-67.409 70.85-55.778 25.89-123.444 32.446-170.197 27.239-3.587-.4-16.336-1.845-16.38-1.851-37.399-5.038-58.732 43.295-36.287 76.406 14.464 21.341 53.865 35.23 93.289 35.235 90.385.014 159.86-38.586 185.701-71.921.774-.997.85-1.106 2.07-2.946 1.269-1.918.221-2.972-1.363-1.89-21.113 14.447-114.897 71.803-215.209 54.548 0 0-12.189-2.004-23.316-6.335-8.843-3.437-27.347-11.95-29.597-30.938 80.956 25.037 131.929 1.371 131.929 1.371.918-.388 1.555-1.442 1.449-2.487a2.335 2.335 0 0 0-2.561-2.088s-66.361 9.824-129.051-13.127c6.828-22.192 24.986-14.177 52.428-11.964 49.467 2.948 93.8-4.277 126.564-13.68 28.392-8.15 65.683-24.213 94.644-47.073 9.77 21.459 13.22 45.077 13.22 45.077s7.562-1.354 13.881 2.536c5.972 3.675 10.352 11.314 7.361 31.064Zm-461.04-351.539c31.095-35.933 69.376-67.174 103.667-84.716 1.184-.606 2.445.682 1.8 1.847-2.722 4.931-7.964 15.487-9.626 23.499-.26 1.246 1.1 2.186 2.152 1.469 21.335-14.543 58.444-30.124 90.995-32.127 1.4-.085 2.074 1.707.962 2.562-4.95 3.796-10.365 9.05-14.318 14.365-.674.905-.04 2.208 1.088 2.216 22.856.161 55.078 8.161 76.078 19.939 1.424.797.411 3.55-1.178 3.185-31.778-7.284-83.791-12.808-137.821.371-48.235 11.764-85.051 29.929-111.909 49.465-1.356.986-2.988-.807-1.89-2.075Zm-161.546 170.89c-28.155 5.475-52.97 21.43-68.141 43.472-9.07-7.565-25.967-22.208-28.95-27.913-24.226-46 26.438-135.434 61.83-185.941C185.568 110.079 322.56 15.602 385.98 32.742c10.308 2.918 44.453 42.508 44.453 42.508s-63.392 35.173-122.178 84.201c-79.211 60.992-139.047 149.639-174.892 245.83Zm47.308 211.083a67.773 67.773 0 0 1-12.991.912c-42.361-1.138-88.12-39.274-92.666-84.502-5.026-49.99 20.517-88.466 65.744-97.586 5.406-1.089 11.94-1.719 18.985-1.352 25.34 1.388 62.68 20.845 71.212 76.045 7.554 48.889-4.446 98.667-50.284 106.483Zm573.845-88.52c-.365-1.283-2.727-9.926-5.976-20.339-3.248-10.413-6.611-17.744-6.611-17.744 13.028-19.506 13.262-36.952 11.531-46.828-1.852-12.249-6.949-22.685-17.225-33.473-10.278-10.788-31.293-21.836-60.831-30.129-3.378-.948-14.518-4.006-15.498-4.303-.076-.641-.815-36.538-1.488-51.946-.49-11.14-1.446-28.53-6.84-45.662-6.432-23.185-17.636-43.473-31.622-56.453 38.596-40.009 62.688-84.08 62.631-121.89-.111-72.71-89.407-94.71-199.449-49.144-.117.05-23.151 9.816-23.317 9.898-.103-.1-42.151-41.357-42.784-41.909C291.572-91.512-100.705 344.515 24.714 450.413l27.41 23.219c-7.111 18.418-9.904 39.518-7.622 62.209 2.93 29.145 17.964 57.084 42.329 78.671 23.132 20.494 53.544 33.465 83.057 33.439 48.807 112.472 160.32 181.469 291.074 185.353 140.254 4.166 257.991-61.645 307.325-179.867 3.226-8.299 16.92-45.683 16.92-78.683 0-33.166-18.75-46.91-30.691-46.91Z"/></svg>